<svg xmlns="http://www.w3.org/2000/svg" viewBox="0 0 32 32" fill="none">
  <defs>
    <linearGradient id="bg" x1="0" y1="0" x2="32" y2="32" gradientUnits="userSpaceOnUse">
      <stop offset="0%" stop-color="#ec4899"/>
      <stop offset="50%" stop-color="#a855f7"/>
      <stop offset="100%" stop-color="#6366f1"/>
    </linearGradient>
    <linearGradient id="heart" x1="8" y1="8" x2="24" y2="26" gradientUnits="userSpaceOnUse">
      <stop offset="0%" stop-color="#ffffff"/>
      <stop offset="100%" stop-color="#fce7f3"/>
    </linearGradient>
  </defs>
  <rect width="32" height="32" rx="8" fill="url(#bg)"/>
  <path d="M16 25.6s-7.2-5.4-9-8.4c-1.2-2-.6-4.8 1.4-6 2-1.2 4.2-.4 5.6 1.2l2 2.4 2-2.4c1.4-1.6 3.6-2.4 5.6-1.2 2 1.2 2.6 4 1.4 6-1.8 3-9 8.4-9 8.4z" fill="url(#heart)" opacity="0.95"/>
  <path d="M14 14.5c0 0-1.5 2-1.5 3.2s.7 1.8 1.5 1.8 1.5-.6 1.5-1.8S14 14.5 14 14.5z" fill="url(#bg)" opacity="0.4"/>
</svg>
